<svg width="19" height="18" viewBox="0 0 19 18" fill="none" xmlns="http://www.w3.org/2000/svg">
<g clip-path="url(#clip0_2491_411)">
<path d="M15.875 18H14.375V14.2178C14.3744 13.6297 14.1406 13.066 13.7248 12.6502C13.309 12.2344 12.7453 12.0006 12.1572 12H6.09275C5.50475 12.0006 4.941 12.2344 4.52522 12.6502C4.10944 13.066 3.8756 13.6297 3.875 14.2178V18H2.375V14.2178C2.37619 13.2321 2.76826 12.2872 3.46522 11.5902C4.16217 10.8933 5.10711 10.5012 6.09275 10.5H12.1572C13.1429 10.5012 14.0878 10.8933 14.7848 11.5902C15.4817 12.2872 15.8738 13.2321 15.875 14.2178V18Z" fill="#ABABAB"/>
<path d="M9.125 9C8.23499 9 7.36496 8.73608 6.62494 8.24162C5.88491 7.74715 5.30814 7.04434 4.96754 6.22208C4.62695 5.39981 4.53783 4.49501 4.71147 3.6221C4.8851 2.74918 5.31369 1.94736 5.94302 1.31802C6.57236 0.688685 7.37418 0.260102 8.2471 0.0864683C9.12001 -0.0871652 10.0248 0.00194979 10.8471 0.342544C11.6693 0.683138 12.3721 1.25991 12.8666 1.99994C13.3611 2.73996 13.625 3.60999 13.625 4.5C13.6238 5.69311 13.1493 6.83701 12.3057 7.68067C11.462 8.52432 10.3181 8.99881 9.125 9ZM9.125 1.5C8.53166 1.5 7.95164 1.67595 7.45829 2.00559C6.96494 2.33524 6.58043 2.80377 6.35336 3.35195C6.1263 3.90013 6.06689 4.50333 6.18265 5.08527C6.2984 5.66722 6.58412 6.20177 7.00368 6.62132C7.42324 7.04088 7.95779 7.3266 8.53973 7.44236C9.12167 7.55811 9.72487 7.4987 10.2731 7.27164C10.8212 7.04458 11.2898 6.66006 11.6194 6.16671C11.9491 5.67337 12.125 5.09335 12.125 4.5C12.125 3.70435 11.8089 2.94129 11.2463 2.37868C10.6837 1.81607 9.92065 1.5 9.125 1.5Z" fill="#ABABAB"/>
</g>
<defs>
<clipPath id="clip0_2491_411">
<rect width="18" height="18" fill="white" transform="translate(0.125)"/>
</clipPath>
</defs>
</svg>
