<svg width="230" height="80" viewBox="0 0 230 80" fill="none" xmlns="http://www.w3.org/2000/svg">
<path d="M41.9266 47.2484V12.4747H41.6918L27.1586 47.2484H21.6145L7.0483 12.4747H6.81348V47.2484H0V0H8.65169L24.2527 37.6542H24.5205L40.0884 0H48.7732V47.2484H41.9266ZM55.3885 37.4564C55.3885 31.433 60.0996 27.7327 68.4504 27.2724L78.0708 26.715V24.0611C78.0708 20.2313 75.4327 17.937 71.0225 17.937C66.847 17.937 64.242 19.9005 63.6072 22.9787H56.7938C57.1937 16.7575 62.6056 12.1726 71.294 12.1726C79.8136 12.1726 85.2585 16.5921 85.2585 23.5001V47.2376H78.3423V41.5739H78.1735C76.1372 45.4037 71.6939 47.8274 67.0819 47.8274C60.1987 47.8346 55.3885 43.6452 55.3885 37.4564ZM78.0708 34.3458V31.6272L69.4191 32.1523C65.1079 32.4471 62.6716 34.3135 62.6716 37.2586C62.6716 40.2721 65.2106 42.2355 69.0852 42.2355C74.1265 42.2391 78.0708 38.8337 78.0708 34.3458ZM115.517 24.6544C114.784 20.9865 111.977 18.0737 107.266 18.0737C101.685 18.0737 98.0122 22.6263 98.0122 30.0234C98.0122 37.5859 101.722 41.973 107.332 41.973C111.775 41.973 114.681 39.5817 115.517 35.5901H122.467C121.7 42.926 115.719 47.9029 107.266 47.9029C97.2087 47.9029 90.663 41.1567 90.663 30.027C90.663 19.0914 97.2123 12.1834 107.2 12.1834C116.251 12.1834 121.766 17.8795 122.401 24.658H115.517V24.6544ZM128.011 47.2484V0H148.99C158.042 0 163.722 4.55258 163.722 11.7878C163.722 16.9625 159.781 21.2814 154.67 22.0365V22.299C161.219 22.7917 166.03 27.4738 166.03 33.7273C166.03 42.045 159.649 47.2484 149.361 47.2484H128.011ZM138.101 19.6452H145.351C150.73 19.6452 153.804 17.3221 153.804 13.3269C153.804 9.5295 151.096 7.36828 146.389 7.36828H138.104V19.6452H138.101ZM146.785 39.8801C152.597 39.8801 155.738 37.4564 155.738 32.9398C155.738 28.5203 152.498 26.1612 146.55 26.1612H138.097V39.8801H146.785ZM170.935 12.1474H180.357V18.4657H180.559C181.829 14.0138 184.87 11.59 189.079 11.59C190.216 11.59 191.185 11.7555 191.853 11.9496V20.3644C191.049 20.0371 189.714 19.807 188.312 19.807C183.502 19.807 180.695 22.6874 180.695 27.632V47.2448H170.939V12.1474H170.935ZM194.52 29.6638C194.52 18.3038 201.535 11.3923 212.26 11.3923C222.985 11.3923 230 18.2679 230 29.6638C230 41.2215 223.084 48 212.26 48C201.436 48 194.52 41.1891 194.52 29.6638ZM220.079 29.6962C220.079 22.7234 217.004 18.6958 212.26 18.6958C207.516 18.6958 204.408 22.7234 204.408 29.6962C204.408 36.7372 207.45 40.6964 212.26 40.6964C217.037 40.7 220.079 36.7372 220.079 29.6962Z" fill="black"/>
<path d="M0 79.7236H3.20202V72.3241H10.7106V69.6859H3.20202V64.3216H11.418V61.5955H0V79.7236Z" fill="black"/>
<path d="M19.6556 80C23.714 80 26.1837 77.3116 26.1837 72.8643V72.8392C26.1837 68.4171 23.7015 65.7286 19.6556 65.7286C15.622 65.7286 13.1274 68.4296 13.1274 72.8392V72.8643C13.1274 77.3116 15.5848 80 19.6556 80ZM19.6556 77.4623C17.5085 77.4623 16.2798 75.7663 16.2798 72.8769V72.8518C16.2798 69.9623 17.5085 68.2538 19.6556 68.2538C21.7903 68.2538 23.0189 69.9623 23.0189 72.8518V72.8769C23.0189 75.7663 21.8027 77.4623 19.6556 77.4623Z" fill="black"/>
<path d="M28.4392 79.7236H31.5295V71.7462C31.5295 69.7864 32.8823 68.5427 34.9425 68.5427C35.4762 68.5427 35.985 68.6181 36.4815 68.7186V65.9171C36.1836 65.8291 35.6996 65.7663 35.228 65.7663C33.4408 65.7663 32.1997 66.6332 31.7405 68.103H31.5295V65.9925H28.4392V79.7236Z" fill="black"/>
<path d="M49.9159 80C53.3537 80 55.3519 78.1281 55.7987 75.3141L55.8235 75.2136L52.9069 75.2261L52.8821 75.2764C52.4973 76.7211 51.5169 77.4623 49.9159 77.4623C47.8184 77.4623 46.5649 75.7538 46.5649 72.8392V72.8141C46.5649 69.9372 47.806 68.2538 49.9159 68.2538C51.6038 68.2538 52.609 69.2085 52.8945 70.5402L52.9069 70.5779H55.8235V70.5276C55.476 67.6884 53.3909 65.7286 49.9035 65.7286C45.8203 65.7286 43.425 68.3794 43.425 72.8141V72.8392C43.425 77.3241 45.8327 80 49.9159 80Z" fill="black"/>
<path d="M58.0417 79.7236H61.132V60.6784H58.0417V79.7236Z" fill="black"/>
<path d="M65.7828 63.6935C66.7881 63.6935 67.6196 62.8769 67.6196 61.8467C67.6196 60.8291 66.7881 60 65.7828 60C64.7651 60 63.9336 60.8291 63.9336 61.8467C63.9336 62.8769 64.7651 63.6935 65.7828 63.6935ZM64.2315 79.7236H67.3218V65.9925H64.2315V79.7236Z" fill="black"/>
<path d="M76.0806 80C79.7666 80 81.5786 77.8518 82.013 76.0804L82.0502 75.9673H79.1088L79.0716 76.0553C78.7737 76.6834 77.8181 77.5377 76.1426 77.5377C74.0452 77.5377 72.7296 76.1055 72.6924 73.6432H82.1743V72.6131C82.1743 68.4673 79.7914 65.7286 75.9316 65.7286C72.0718 65.7286 69.6021 68.5553 69.6021 72.8769V72.8894C69.6021 77.2613 72.047 80 76.0806 80ZM75.9689 68.1784C77.694 68.1784 78.9475 69.2965 79.1585 71.5452H72.7172C72.953 69.3593 74.2438 68.1784 75.9689 68.1784Z" fill="black"/>
<path d="M84.4174 79.7236H87.5077V71.7211C87.5077 69.6608 88.6495 68.3543 90.4863 68.3543C92.3604 68.3543 93.2167 69.4347 93.2167 71.5704V79.7236H96.3071V70.8417C96.3071 67.5754 94.6564 65.7286 91.6281 65.7286C89.6672 65.7286 88.3641 66.6206 87.7187 68.0905H87.5077V65.9925H84.4174V79.7236Z" fill="black"/>
<path d="M104.445 79.7864C105.041 79.7864 105.612 79.7362 106.059 79.6482V77.2362C105.686 77.2739 105.451 77.2864 105.016 77.2864C103.725 77.2864 103.192 76.7085 103.192 75.3392V68.4171H106.059V65.9925H103.192V62.6256H100.052V65.9925H97.942V68.4171H100.052V76.0804C100.052 78.7312 101.33 79.7864 104.445 79.7864Z" fill="black"/>
<path d="M113.241 80C116.58 80 119 78.2538 119 75.6407V75.6156C119 73.6181 117.746 72.4749 115.091 71.8719L112.894 71.3819C111.429 71.0427 110.858 70.5528 110.858 69.7487V69.7362C110.858 68.706 111.851 68.0276 113.229 68.0276C114.681 68.0276 115.575 68.7312 115.798 69.598L115.81 69.6357H118.715V69.6106C118.516 67.3869 116.543 65.7286 113.241 65.7286C110.039 65.7286 107.805 67.4372 107.805 69.9121V69.9246C107.805 71.9472 109.034 73.1784 111.616 73.7563L113.812 74.2588C115.302 74.598 115.897 75.1256 115.897 75.9296V75.9548C115.897 76.9849 114.83 77.6884 113.291 77.6884C111.752 77.6884 110.846 77.0226 110.523 76.0678L110.511 76.0427H107.445V76.0678C107.706 78.392 109.791 80 113.241 80Z" fill="black"/>
</svg>
